<svg xmlns="http://www.w3.org/2000/svg" viewBox="0 0 192.5 33"><path d="M48.1 16.5c0-5.8-4.7-10.4-10.5-10.4-.5 0-1.1 0-1.6.1-4.5.7-7.5 4-9.3 6.5-1.7-2.6-4.8-5.9-9.3-6.5-.5 0-1-.1-1.6-.1-5.8 0-10.5 4.7-10.5 10.4s4.8 10.4 10.5 10.4c.5 0 1.1 0 1.7-.1 4.5-.7 7.5-4 9.3-6.6 1.7 2.6 4.8 5.9 9.3 6.6.5.1 1.1.1 1.7.1 5.7 0 10.3-4.6 10.3-10.4zM17 23.2c-.3.1-.8.1-1.1.1-3.8 0-6.9-3-6.9-6.8s3.1-6.8 6.9-6.8c.3 0 .8 0 1.1.1 4.3.6 6.8 4.9 7.8 6.7-.9 1.8-3.5 6-7.8 6.7zM36.5 9.8c-4.3.6-6.8 4.9-7.8 6.7.8 1.8 3.5 6 7.8 6.7.3.1.8.1 1.1.1 3.8 0 6.9-3 6.9-6.8 0-3.7-3.1-6.8-6.9-6.8-.3 0-.7.1-1.1.1zM13 15.4h6.3v2H13v-2zm27.5 2h-2.2v2.1h-2.1v-2.1H34v-2h2.2v-2.2h2.1v2.1h2.2v2.1z" fill-rule="evenodd" clip-rule="evenodd" fill="#00979d"/><path fill="#00979d" d="M54.8 6.1h132.7V27H54.8z"/><path d="M62.6 21.9h2.6v-3h1.3c2.8 0 4.2-1.5 4.2-3.8 0-2-1.1-3.5-3.9-3.5h-4.1l-.1 10.3zm3.8-5.1h-1.3v-3.1h1.3c1.3 0 1.5.8 1.5 1.5-.1 1.1-.5 1.6-1.5 1.6zm6.8 5.1h2.6v-3.3h1.3l1.6 3.3h3l-2-3.8c1.1-.6 1.7-1.7 1.7-3.1 0-2-1.1-3.4-3.9-3.4h-4.2v10.3zm4-5.3h-1.3v-2.9h1.3c1.2 0 1.5.5 1.5 1.4 0 1.1-.6 1.5-1.5 1.5zm11-5.1c-3.2 0-4.3 2.3-4.3 5.4 0 3.4 1.3 5.2 4.3 5.2 3.3 0 4.4-2.3 4.4-5.3 0-4-1.5-5.3-4.4-5.3zm0 8.5c-1.5 0-1.6-1.1-1.6-3.1 0-2.5.3-3.3 1.6-3.3 1.5 0 1.8.7 1.8 3.3-.1 2.3-.3 3.1-1.8 3.1zm8-6.3h3.9v3.8c0 2.4-2 2.8-4 3l.4 2.3c2.7-.1 6.2-1.2 6.2-4.8v-6.4h-6.4l-.1 2.1zm10.3-2.1v10.3h7.4v-2.1H109v-2.1h4.5v-2.1H109v-2h4.9v-2.1h-7.4zm18.1 7.6c-.8.6-1.6.8-2.5.8-1.5 0-2.2-1.2-2.2-3.3s.8-3.2 2.1-3.2c.8 0 1.4.3 2.3.9l.8-2.1c-.9-.6-1.9-.8-3-.8-3 0-4.9 1.9-4.9 5.3s1.5 5.3 4.6 5.3c1.2 0 2.2-.3 3.4-.9l-.6-2zm11.8-7.6h-8.7v2.1h3V22h2.6v-8.3h3l.1-2.1zm19.2 0v4h-3.1v-4h-2.6v10.3h2.6v-4.1h3.1v4.1h2.6V11.6h-2.6zm11 6.3c0 1.6-.4 2.1-1.6 2.1-1 0-1.6-.4-1.6-2.1v-6.3h-2.6v6.8c0 3.1 2.3 3.7 4 3.7 1.8 0 4.2-.7 4.2-3.7v-6.8h-2.4v6.3zm13.6.9c0-1.1-.5-2.3-2.4-2.4 1.5-.5 1.7-1.5 1.7-2.3 0-1.2-.8-2.4-3.3-2.4h-3.8V22h4.6c1.8-.1 3.2-1.2 3.2-3.2zm-4.3-1.3c1.1 0 1.6.3 1.6 1.2 0 .8-.4 1.1-1.3 1.1h-1.4v-2.3h1.1zm.8-2.9c0 .8-.3 1.1-1.3 1.1h-.7v-2h.8c.8 0 1.2.3 1.2.9z" fill="#fff"/></svg>