<svg xmlns="http://www.w3.org/2000/svg" viewBox="0 0 42 31" fill="none" data-inject-url="https://cdn.arduino.cc/header-footer/prod/assets/headerApp-arduino-cloud.svg"><path d="M31.885 28.361c-4.732 0-8.71-2.478-11.202-6.977l-1.99-3.592c-1.967-3.553-4.934-5.43-8.578-5.43-3.647 0-6.615 2.915-6.615 6.5 0 3.583 2.968 6.5 6.615 6.5H18.5a1.5 1.5 0 1 1 0 3h-8.385c-5.302 0-9.615-4.263-9.615-9.5 0-5.24 4.313-9.5 9.615-9.5 4.732 0 8.71 2.477 11.202 6.977l1.99 3.591c1.967 3.553 4.934 5.431 8.578 5.431 3.647 0 6.615-2.916 6.615-6.5s-2.968-6.5-6.615-6.5c-.866 0-1.71.11-2.507.327a1.497 1.497 0 0 1-1.89-1.333C27.232 7.994 24.382 5.361 21 5.361c-1.432 0-2.79.456-3.926 1.32a1.5 1.5 0 0 1-1.814-2.39A9.42 9.42 0 0 1 21 2.36c4.37 0 8.132 3.012 9.203 7.11.552-.073 1.114-.11 1.682-.11 5.302 0 9.615 4.262 9.615 9.5s-4.313 9.5-9.615 9.5Z" fill="#00979D"></path></svg>