<svg width="2rem" height="2rem" viewBox="0 0 32 32" fill="none"  xmlns="http://www.w3.org/2000/svg" style="">
    <path d="M28 16C28 16.2652 27.8946 16.5196 27.7071 16.7071C27.5196 16.8946 27.2652 17 27 17H7.41L14.71 24.29C14.8037 24.383 14.8781 24.4936 14.9289 24.6154C14.9797 24.7373 15.0058 24.868 15.0058 25C15.0058 25.132 14.9797 25.2627 14.9289 25.3846C14.8781 25.5064 14.8037 25.617 14.71 25.71C14.617 25.8037 14.5064 25.8781 14.3846 25.9289C14.2627 25.9797 14.132 26.0058 14 26.0058C13.868 26.0058 13.7373 25.9797 13.6154 25.9289C13.4936 25.8781 13.383 25.8037 13.29 25.71L4.29 16.71C4.19627 16.617 4.12188 16.5064 4.07111 16.3846C4.02034 16.2627 3.9942 16.132 3.9942 16C3.9942 15.868 4.02034 15.7373 4.07111 15.6154C4.12188 15.4936 4.19627 15.383 4.29 15.29L13.29 6.29C13.3832 6.19676 13.4939 6.1228 13.6158 6.07234C13.7376 6.02188 13.8681 5.99591 14 5.99591C14.1319 5.99591 14.2624 6.02188 14.3842 6.07234C14.5061 6.1228 14.6168 6.19676 14.71 6.29C14.8032 6.38324 14.8772 6.49393 14.9277 6.61575C14.9781 6.73758 15.0041 6.86814 15.0041 7C15.0041 7.13186 14.9781 7.26243 14.9277 7.38425C14.8772 7.50607 14.8032 7.61676 14.71 7.71L7.41 15H27C27.2652 15 27.5196 15.1054 27.7071 15.2929C27.8946 15.4804 28 15.7348 28 16Z" 
    fill="#00979C" style="">
    </path>
</svg>